<?xml version="1.0" standalone="no"?>
<!DOCTYPE svg PUBLIC "-//W3C//DTD SVG 20010904//EN"
 "http://www.w3.org/TR/2001/REC-SVG-20010904/DTD/svg10.dtd">
<svg version="1.0" xmlns="http://www.w3.org/2000/svg"
 width="613.000000pt" height="615.000000pt" viewBox="0 0 613.000000 615.000000"
 preserveAspectRatio="xMidYMid meet">

<g transform="translate(0.000000,615.000000) scale(0.100000,-0.100000)"
fill="#000000" stroke="none">
<path d="M0 3075 l0 -3075 3065 0 3065 0 0 3075 0 3075 -3065 0 -3065 0 0
-3075z m3385 3034 c1028 -101 1952 -744 2415 -1684 161 -326 245 -603 297
-975 23 -173 23 -567 0 -740 -35 -251 -90 -472 -174 -700 -48 -131 -188 -414
-267 -538 -483 -763 -1247 -1264 -2139 -1404 -124 -19 -181 -22 -442 -22 -337
0 -453 12 -720 78 -855 211 -1571 773 -1983 1556 -302 574 -410 1257 -301
1905 106 635 410 1211 881 1670 162 159 258 237 448 363 585 390 1275 561
1985 491z"/>
<path d="M940 3080 l0 -2140 2135 0 2135 0 0 2140 0 2140 -2135 0 -2135 0 0
-2140z m2345 2100 c974 -107 1743 -848 1880 -1812 17 -121 20 -416 5 -538 -66
-528 -334 -1022 -739 -1362 -529 -443 -1225 -601 -1887 -429 -745 195 -1331
787 -1518 1537 -61 244 -78 555 -42 798 68 468 280 883 622 1217 339 329 772
534 1244 588 107 12 329 13 435 1z"/>
</g>
</svg>
